<svg height="24" viewBox="0 0 20 24" width="20" xmlns="http://www.w3.org/2000/svg" xmlns:xlink="http://www.w3.org/1999/xlink"><title/><defs><path d="M5.07 7.14c-.342.104-.65.203-.92.292L2.967 5.37s6.01-2.106 11.438-2.106c5.427 0 11.438 2.106 11.438 2.106l-1.185 2.062c-.223-.074-.475-.155-.75-.24l.79-1.272s-4.655-1.74-10.21-1.74c-5.555 0-10.15 1.74-10.15 1.74l.734 1.22zM24.217 8.2l-9.812 17.07L4.592 8.2c2.12-.68 6.007-1.727 9.812-1.727 3.805 0 7.692 1.047 9.812 1.726zm-9.812 15.236L22.64 9.093s-3.837-1.608-8.236-1.608c-4.4 0-8.236 1.608-8.236 1.608l8.236 14.343zm-2.288-8.252c.758 0 1.373-.616 1.373-1.376 0-.76-.616-1.375-1.374-1.375-.758 0-1.372.616-1.372 1.375 0 .76.614 1.376 1.372 1.376zm1.373-3.668c.757 0 1.37-.616 1.37-1.375 0-.76-.613-1.375-1.37-1.375-.76 0-1.374.616-1.374 1.376 0 .76.615 1.376 1.373 1.376zm1.83 7.794c.757 0 1.37-.616 1.37-1.375 0-.76-.613-1.376-1.37-1.376-.76 0-1.374.615-1.374 1.375s.615 1.375 1.373 1.375zm3.202-6.877c.758 0 1.372-.616 1.372-1.375 0-.76-.614-1.376-1.372-1.376-.76 0-1.373.616-1.373 1.376 0 .76.613 1.375 1.372 1.375z" id="a"/></defs><g fill="none" fill-rule="evenodd"><use fill="#81b3d2" transform="rotate(-30 14.466 14.265)" xlink:href="#a"/><use xlink:href="#a"/></g></svg>